<?xml version="1.0" encoding="UTF-8"?>
<svg id="Capa_2" data-name="Capa 2" xmlns="http://www.w3.org/2000/svg" viewBox="0 0 748.41 281.81">
  <defs>
    <style>
      .cls-1 {
        fill: #e77e21;
      }
    </style>
  </defs>
  <g id="Capa_1-2" data-name="Capa 1">
    <g>
      <path class="cls-1" d="M83.87,22.6c5.85-2.02,11.56-3.88,17.11-5.6,15.75-4.84,28.84-8.05,39.29-9.61,10.45-1.56,16.93-1.84,19.46-.83-1.82,2.63-7.47,6.51-16.96,11.66-.71.4-1.19.98-1.44,1.74-.25.76-.18,1.49.23,2.2.4.71.98,1.19,1.74,1.44.76.25,1.49.18,2.2-.23,8.07-4.34,13.48-7.82,16.2-10.45,2.72-2.62,4.09-4.89,4.09-6.81,0-2.02-.96-3.53-2.88-4.54-2.52-1.61-7.62-1.97-15.29-1.06-7.67.91-15.7,2.35-24.07,4.32-8.38,1.97-17.06,4.37-26.04,7.19-3.94,1.21-8.02,2.52-12.26,3.94.4-2.42.81-4.64,1.21-6.66.2-.81.08-1.54-.38-2.2-.45-.66-1.09-1.06-1.89-1.21-.81-.15-1.54,0-2.2.45-.66.45-1.09,1.09-1.29,1.89-.51,2.83-1.16,6.16-1.97,9.99C47.83,29.21,22.04,41.67,1.35,55.6c-.71.51-1.14,1.14-1.29,1.89-.15.76-.03,1.49.38,2.2.61.81,1.41,1.21,2.42,1.21.61,0,1.16-.15,1.67-.45,19.58-13.12,43.86-24.98,72.83-35.58-2.12,9.99-6.11,28.41-11.96,55.26-5.45,25.13-9.49,44.01-12.11,56.63-16.76,5.65-31.7,13.93-44.82,24.83-.61.5-.96,1.16-1.06,1.97-.1.81.1,1.51.61,2.12.61.7,1.36,1.06,2.27,1.06.7,0,1.31-.2,1.82-.61,11.71-9.69,24.93-17.26,39.67-22.71-3.63,17.26-6.66,31.95-9.08,44.06-3.33,17.16-5.65,30.28-6.97,39.37-1.01,7.57-1.39,12.51-1.13,14.84.25,2.32,1.13,3.73,2.65,4.24.4.2.81.3,1.21.3,1.31,0,2.55-.89,3.71-2.65,1.16-1.77,2.65-4.77,4.47-9.01.3-.71.3-1.44,0-2.2-.3-.76-.83-1.29-1.59-1.59-.76-.3-1.51-.3-2.27,0-.76.3-1.29.86-1.59,1.67-.2.4-.4.86-.61,1.36,1.51-13.53,7.42-44.36,17.72-92.51,12.62-3.94,24.32-5.8,35.13-5.6.81,0,1.51-.28,2.12-.83.61-.55.91-1.23.91-2.04s-.28-1.51-.83-2.12c-.56-.61-1.24-.91-2.04-.91-10.4-.2-21.7,1.46-33.92,5,2.62-12.42,6.46-30.18,11.51-53.3,6.26-28.87,10.5-48.5,12.72-58.9Z"/>
      <path class="cls-1" d="M289.93,125.25c-.71-.4-1.46-.5-2.27-.3-.81.2-1.41.66-1.82,1.36-1.41,2.63-2.65,4.79-3.71,6.51-1.06,1.72-2.6,4.07-4.62,7.04-2.02,2.98-3.91,5.25-5.68,6.81-1.77,1.57-3.26,2.25-4.47,2.04-2.52-.3-4.9-4.34-7.12-12.11-1.41-4.54-2.9-8.12-4.47-10.75-1.57-2.62-3.66-3.99-6.28-4.09-2.22-.1-4.54,1.01-6.97,3.33-2.42,2.32-5.25,6.51-8.48,12.57,1.21-4.34,2.93-10.39,5.15-18.17.81-2.82,1.31-4.59,1.51-5.3.3-.81.25-1.56-.15-2.27-.4-.7-.98-1.16-1.74-1.36-.76-.2-1.49-.13-2.2.23-.71.36-1.21.94-1.51,1.74-.3,1.21-.81,2.98-1.51,5.3-.77,2.65-1.5,5.19-2.2,7.64-.47.29-.85.72-1.13,1.29-3.53,7.37-6.99,13.45-10.37,18.24-3.38,4.8-6.16,8.02-8.33,9.69-2.17,1.67-3.96,2.35-5.38,2.04-.51,0-.98-.18-1.44-.53-.45-.35-1.09-1.19-1.89-2.5-.81-1.31-1.51-2.95-2.12-4.92-.61-1.97-1.21-4.87-1.82-8.71-.61-3.84-1.01-8.23-1.21-13.17-.1-1.41-.81-2.29-2.12-2.65-1.31-.35-2.37-.02-3.18.98-.51.71-1.41,1.97-2.73,3.79-5.86,8.08-10.8,14.28-14.84,18.62-.81.81-1.51,1.46-2.12,1.97-.61-3.23.48-8.65,3.26-16.28.12-.32.24-.61.36-.92.63-1.29,1.25-2.58,1.84-3.85.21-.37.32-.75.34-1.13,2.26-4.5,4.87-7.82,7.84-9.92,3.63-2.62,7.22-1.82,10.75,2.42.5.61,1.16.93,1.97.98.81.05,1.51-.18,2.12-.68.61-.5.93-1.16.98-1.97.05-.81-.18-1.51-.68-2.12-4.54-5.45-9.49-7.22-14.84-5.3-3.63,1.21-7.02,4.19-10.14,8.93-2.19,3.32-4,6.71-5.44,10.17-2.67,5.55-5.42,10.86-8.26,15.87-3.48,6.16-6.66,11.36-9.54,15.6-2.88,4.24-5.55,7.87-8.02,10.9-2.47,3.03-4.54,5.25-6.21,6.66-1.67,1.41-2.9,2.07-3.71,1.97-.1-.2-.25-.51-.45-.91-2.12-6.66,1.87-25.64,11.96-56.93,1.01-3.03.76-5.15-.76-6.36-.61-.4-1.21-.65-1.82-.76-.61-.1-1.34.05-2.2.45-.86.4-1.62.78-2.27,1.14-.66.36-1.64.98-2.95,1.89-7.17,4.75-12.32,6.92-15.44,6.51,4.74-8.38,8.12-15.16,10.14-20.36,2.02-5.2,2.9-8.71,2.65-10.52-.25-1.82-1.09-3.13-2.5-3.94-2.32-1.51-5.12-.91-8.4,1.82-3.28,2.73-6.08,5.91-8.4,9.54-3.74,5.75-5.55,11.05-5.45,15.9.1,4.85,2.07,8.63,5.91,11.36,1.92,1.31,3.99,2.02,6.21,2.12,2.22.1,4.57-.35,7.04-1.36,2.47-1.01,4.44-1.92,5.9-2.73,1.46-.81,3.31-1.97,5.53-3.48.1,0,.18-.02.23-.08.05-.05.13-.08.23-.08-6.06,18.67-9.79,33.11-11.2,43.3-1.51,10.9-.2,17.16,3.94,18.77.61.3,1.26.45,1.97.45,2.82,0,6.26-1.99,10.3-5.98,4.04-3.99,8.1-9.14,12.19-15.44,3.36-5.19,6.49-10.33,9.41-15.42.32,2.93,1.44,4.78,3.38,5.5,2.42,1.11,5.35-.15,8.78-3.79,3.83-4.24,8.23-9.69,13.17-16.35,1.61,16.86,5.8,25.94,12.57,27.25.61.1,1.16.15,1.67.15,5.79,0,12.13-5.21,19-15.62-1.78,7.32-2.92,12.99-3.41,16.99-.2,1.72.56,2.77,2.27,3.18.2.1.4.15.61.15,1.31,0,2.22-.61,2.72-1.82,2.73-6.76,5.27-12.62,7.65-17.56,2.37-4.94,4.29-8.68,5.75-11.2,1.46-2.52,2.8-4.52,4.01-5.98,1.21-1.46,2.09-2.37,2.65-2.73.55-.35.98-.48,1.29-.38,1.51,0,3.33,3.48,5.45,10.45,2.93,10.3,6.91,15.75,11.96,16.35,2.52.3,5.1-.55,7.72-2.57,2.62-2.02,5.2-4.79,7.72-8.33,2.52-3.53,5.5-8.33,8.93-14.38.4-.7.5-1.44.3-2.2-.2-.76-.66-1.34-1.36-1.74ZM115.81,114.35c.61-2.62,1.74-5.22,3.41-7.8,1.67-2.57,3.28-4.67,4.85-6.28,1.56-1.61,2.95-2.78,4.16-3.48-.51,4.54-4.44,13.22-11.81,26.04-1.31-2.12-1.51-4.94-.61-8.48Z"/>
      <path class="cls-1" d="M472.53,28.35c-.61-8.78-3.28-13.42-8.03-13.93-3.03-.3-6.54,1.39-10.52,5.07-3.99,3.69-8.23,9.19-12.72,16.5-4.49,7.32-9.19,16.08-14.08,26.27-4.9,10.2-9.89,21.78-14.99,34.75-5.1,12.97-10.07,26.88-14.91,41.71,1.41-10.3,2.55-19.66,3.41-28.09.86-8.43,1.41-15.59,1.67-21.5.25-5.91.3-11.13.15-15.67-.15-4.54-.48-8.18-.98-10.9-.51-2.73-1.19-4.97-2.04-6.74-.86-1.76-1.74-3.03-2.65-3.79-.91-.76-1.92-1.23-3.03-1.44-.61-.1-1.11-.17-1.51-.23-.4-.05-1.11.03-2.12.23-1.01.2-1.97.61-2.88,1.21-.91.61-2.12,1.62-3.64,3.03-1.51,1.41-3.03,3.13-4.54,5.15-1.51,2.02-3.35,4.67-5.52,7.95-2.17,3.28-4.39,7.04-6.66,11.28-2.27,4.24-4.87,9.39-7.8,15.44-2.93,6.06-5.96,12.67-9.08,19.83-13.63,31.29-26.45,66.22-38.46,104.77,4.44-22.01,10.6-50.44,18.47-85.32,7.87-34.87,13.98-61.55,18.32-80.02,4.24-17.66,3.43-28.36-2.42-32.1-4.64-3.03-11.15-1.31-19.53,5.15-5.35,4.14-10.75,9.64-16.2,16.5-5.45,6.87-10.25,14.08-14.38,21.65-9.99,18.67-13.12,33.66-9.39,44.97,1.11,3.33,2.8,6.18,5.07,8.56,2.27,2.37,4.9,4.16,7.87,5.38,2.98,1.21,5.88,2.07,8.71,2.57,2.82.51,5.8.81,8.93.91h.15c.7,0,1.36-.28,1.97-.83.61-.55.91-1.24.91-2.04,0-.61-.13-1.14-.38-1.59-.25-.45-.61-.81-1.06-1.06-.45-.25-.93-.38-1.44-.38-13.83-.2-22.21-4.64-25.13-13.32-.91-3.03-1.29-6.33-1.14-9.92.15-3.58.86-7.44,2.12-11.58,1.26-4.14,2.85-8.3,4.77-12.49,1.92-4.19,4.14-8.35,6.66-12.49,2.52-4.14,5.2-8.07,8.02-11.81,2.83-3.73,5.73-7.17,8.7-10.3,2.98-3.13,5.88-5.8,8.71-8.03,6.26-4.84,10.55-6.51,12.87-5,.2.2.43.4.68.61.25.2.5.61.76,1.21.25.61.45,1.31.61,2.12.15.81.27,1.89.38,3.26.1,1.36.08,2.9-.07,4.62-.15,1.72-.43,3.79-.83,6.21-.41,2.42-.91,5.05-1.51,7.87-7.27,30.49-15.65,67.33-25.14,110.53-5.85,26.55-10.3,47.44-13.32,62.68-1.72,8.88-2.93,15.7-3.63,20.44-.61,3.43-.83,6.03-.68,7.8.15,1.77.88,2.85,2.2,3.26.4.1.76.15,1.06.15.61,0,1.16-.15,1.67-.45.5-.3.96-.86,1.36-1.67.4-.81.73-1.51.98-2.12.25-.6.63-1.51,1.14-2.72v-.15c6.36-22.61,13.68-45.7,21.96-69.27,8.28-23.57,16.6-44.94,24.98-64.12,11-25.13,20.29-42.7,27.86-52.69,4.24-5.65,7.32-8.33,9.24-8.02.2.1.4.23.61.38.2.15.58.78,1.13,1.89.56,1.11,1.01,2.52,1.36,4.24.35,1.72.65,4.39.91,8.02.25,3.63.33,7.87.23,12.72-.5,20.89-4.29,52.14-11.36,93.72-.1.71.08,1.39.53,2.04.45.65,1.06,1.06,1.82,1.21.75.15,1.46.05,2.12-.3.66-.35,1.08-.93,1.29-1.74,14.23-49.16,29.02-89.08,44.36-119.76,2.92-5.85,5.75-11.08,8.48-15.67,2.72-4.59,5.09-8.28,7.11-11.05,2.02-2.78,3.91-5.07,5.68-6.89,1.76-1.82,3.18-3.08,4.24-3.79,1.06-.7,1.94-1.06,2.65-1.06h.15c1.61.2,2.62,3.08,3.03,8.63.3,5.85-.43,15.72-2.19,29.6-1.77,13.88-3.58,26.25-5.45,37.1-1.87,10.85-4.62,26.32-8.25,46.41-2.42,13.22-4.39,24.17-5.9,32.86-1.52,8.68-2.83,16.58-3.94,23.69-1.11,7.12-1.87,12.67-2.27,16.65-.41,3.99-.56,7.37-.45,10.14.1,2.78.4,4.69.91,5.75.5,1.06,1.26,1.79,2.27,2.2,1.72.61,3.26.23,4.62-1.14,1.36-1.36,2.8-3.36,4.32-5.98.4-.71.5-1.44.3-2.2-.21-.76-.66-1.34-1.36-1.74-.71-.4-1.44-.51-2.2-.3-.75.2-1.34.66-1.74,1.36-.51.81-.96,1.56-1.36,2.27-.3-7.77,3.83-35.33,12.42-82.67,3.83-20.69,6.69-36.54,8.56-47.54,1.87-11,3.68-23.37,5.45-37.09,1.77-13.73,2.45-23.67,2.04-29.83Z"/>
      <path class="cls-1" d="M664.51,112.38c1.31,0,2.47-.25,3.48-.76,2.02-1.01,2.77-2.52,2.27-4.54-.51-2.12-2.02-2.78-4.54-1.97-1.62.61-2.93,1.82-3.94,3.63-1.11,2.22-.2,3.43,2.72,3.63Z"/>
      <path class="cls-1" d="M748.39,127.98c-.1-.81-.48-1.46-1.14-1.97-.66-.5-1.39-.7-2.2-.61-.81.1-1.46.45-1.97,1.06-3.33,4.34-7.34,7.87-12.04,10.6-4.69,2.73-8.96,3.69-12.79,2.88.2-1.01.35-2.02.45-3.03.2-4.04.1-7.52-.3-10.45-.4-2.93-1.04-5.1-1.89-6.51-.86-1.41-1.72-2.45-2.57-3.1-.86-.65-1.79-1.08-2.8-1.29-1.82-.3-3.56.15-5.22,1.36-1.67,1.21-2.95,2.93-3.86,5.15-.91-.3-1.72-.2-2.42.3-2.89,1.84-5.2,4.58-6.91,8.21-4.27,6.09-9.1,11.64-14.52,16.62-6.92,6.36-11.68,8.98-14.31,7.87-.2-.1-.43-.28-.68-.53-.25-.25-.56-1.01-.91-2.27-.36-1.26-.56-2.85-.61-4.77-.05-1.92.2-4.72.76-8.4.55-3.68,1.44-7.95,2.65-12.79.2-.71.1-1.41-.3-2.12-.4-.71-.98-1.16-1.74-1.36-.76-.2-1.49-.1-2.2.3-.47.27-.82.63-1.06,1.08-.31.09-.61.22-.9.43-16.15,10.4-28.92,19.43-38.31,27.1,1.61-10.6,3.13-21.7,4.54-33.31.2-1.61-.45-2.65-1.97-3.1-1.51-.45-2.68-.02-3.48,1.29-3.94,6.97-9.14,14.69-15.6,23.17-1.82,2.32-3.28,3.84-4.39,4.54-.91-2.82-.1-8.4,2.42-16.73,2.52-8.33,5.9-14.41,10.14-18.24,3.73-3.33,7.42-3.33,11.05,0,.61.51,1.31.73,2.12.68.81-.05,1.49-.38,2.04-.98.55-.61.81-1.29.76-2.04-.05-.76-.38-1.44-.98-2.04-4.85-4.34-9.84-5.2-14.99-2.57-3.74,1.82-7.17,5.45-10.3,10.9-2.12,3.69-3.82,7.41-5.13,11.17-.11.06-.21.11-.32.19-16.15,10.4-28.92,19.43-38.31,27.1,1.61-10.6,3.13-21.7,4.54-33.31.2-1.61-.45-2.65-1.97-3.1-1.51-.45-2.68-.02-3.48,1.29-3.94,6.97-9.14,14.69-15.6,23.17-1.82,2.32-3.28,3.84-4.39,4.54-.79-2.46-.28-7,1.52-13.61.25-.5.5-1.01.75-1.53.24-.56.3-1.13.19-1.72,2.52-8.26,5.89-14.3,10.1-18.12,3.73-3.33,7.42-3.33,11.05,0,.61.51,1.31.73,2.12.68.81-.05,1.49-.38,2.04-.98.55-.61.81-1.29.76-2.04-.05-.76-.38-1.44-.98-2.04-4.85-4.34-9.84-5.2-14.99-2.57-3.74,1.82-7.17,5.45-10.3,10.9-3.06,5.34-5.28,10.75-6.65,16.23-3.07,6.14-6.07,11.31-9.02,15.49-3.38,4.8-6.16,8.02-8.33,9.69-2.17,1.67-3.96,2.35-5.38,2.04-.51,0-.98-.18-1.44-.53-.45-.35-1.08-1.19-1.89-2.5-.81-1.31-1.51-2.95-2.12-4.92s-1.21-4.87-1.82-8.71c-.61-3.84-1.01-8.23-1.21-13.17-.1-1.41-.81-2.29-2.12-2.65-1.31-.35-2.37-.02-3.18.98-.51.71-1.41,1.97-2.73,3.79-5.85,8.08-10.8,14.28-14.84,18.62-.81.81-1.51,1.46-2.12,1.97-.6-3.23.48-8.65,3.26-16.28,2.78-7.62,6.23-12.89,10.37-15.82,3.63-2.62,7.22-1.82,10.75,2.42.5.61,1.16.93,1.97.98.81.05,1.51-.18,2.12-.68.61-.5.93-1.16.98-1.97.05-.81-.18-1.51-.68-2.12-4.54-5.45-9.49-7.22-14.84-5.3-3.63,1.21-7.02,4.19-10.14,8.93-3.13,4.75-5.5,9.64-7.12,14.69-1.61,5.05-2.42,9.39-2.42,13.02-.1,4.34,1.06,6.97,3.48,7.87,2.42,1.11,5.35-.15,8.78-3.79,3.83-4.24,8.23-9.69,13.17-16.35,1.61,16.86,5.8,25.94,12.57,27.25.61.1,1.16.15,1.67.15,6.27,0,13.17-6.1,20.71-18.29.51,3.25,1.88,5.23,4.12,5.88,3.03.91,6.66-1.41,10.9-6.97,2.73-3.63,5.7-7.87,8.93-12.72-1.21,9.39-2.53,18.37-3.94,26.95-18.98,16.65-33.86,34.72-44.67,54.2-7.37,13.53-11.76,26.75-13.17,39.67-1.21,12.01.36,20.74,4.69,26.19,2.32,2.82,5.1,4.24,8.33,4.24,1.01,0,2.07-.15,3.18-.45,8.08-2.22,16.35-13.32,24.83-33.31,8.48-19.99,15.9-49.16,22.26-87.51,9.4-8.03,21.98-17.25,37.72-27.67-.86,4.26-1.18,7.83-.93,10.71.4,3.74,1.82,5.96,4.24,6.66,3.03.91,6.66-1.41,10.9-6.97,2.73-3.63,5.7-7.87,8.93-12.72-1.21,9.39-2.53,18.37-3.94,26.95-18.98,16.65-33.86,34.72-44.67,54.2-7.37,13.53-11.76,26.75-13.17,39.67-1.21,12.01.36,20.74,4.69,26.19,2.32,2.82,5.1,4.24,8.33,4.24,1.01,0,2.07-.15,3.18-.45,8.08-2.22,16.35-13.32,24.83-33.31,8.48-19.99,15.9-49.16,22.26-87.51,9.56-8.17,22.42-17.58,38.56-28.23-3.36,16.26-2.08,25.66,3.84,28.23.91.4,1.97.61,3.18.61,3.43,0,7.65-1.92,12.64-5.75,4.87-3.74,9.25-7.94,13.16-12.59.14,1.2.37,2.42.69,3.66.81,3.13,2.25,5.58,4.32,7.34,2.07,1.77,4.47,2.7,7.19,2.8h.15c2.72,0,5.35-.98,7.87-2.95,2.52-1.97,4.49-4.67,5.9-8.1,5.05,1.11,10.45.15,16.2-2.88,5.75-3.03,10.7-7.22,14.84-12.57.5-.61.71-1.31.61-2.12ZM538.92,216.7c-3.99,14.43-7.85,25.64-11.58,33.61-3.73,7.97-7.19,14.03-10.37,18.17-3.18,4.14-6.13,6.56-8.86,7.27-2.02.61-3.79,0-5.3-1.82-1.11-1.51-2.02-3.58-2.73-6.21-.7-2.63-1.06-5.83-1.06-9.61s.4-7.9,1.21-12.34c.81-4.44,2.2-9.39,4.16-14.84s4.47-10.9,7.5-16.35c9.39-17.06,22.05-32.96,38-47.69-3.33,18.77-6.99,35.38-10.98,49.81ZM601.3,216.7c-3.99,14.43-7.85,25.64-11.58,33.61-3.73,7.97-7.19,14.03-10.37,18.17-3.18,4.14-6.13,6.56-8.86,7.27-2.02.61-3.79,0-5.3-1.82-1.11-1.51-2.02-3.58-2.73-6.21-.7-2.63-1.06-5.83-1.06-9.61s.4-7.9,1.21-12.34c.81-4.44,2.2-9.39,4.16-14.84s4.47-10.9,7.5-16.35c9.39-17.06,22.05-32.96,38-47.69-3.33,18.77-6.99,35.38-10.98,49.81ZM707.43,148.72c-1.57,1.31-3.05,1.97-4.47,1.97-2.93,0-4.95-1.97-6.06-5.9-.81-2.42-.83-5.25-.07-8.48.21-.89.47-1.73.78-2.52,1.21-1.69,2.35-3.36,3.4-5,.37,6.16,3.79,11.04,10.28,14.64-1.01,2.22-2.3,3.99-3.86,5.3ZM712.81,136.61v.91c-2.72-1.82-4.49-3.83-5.3-6.06-.81-2.22-.91-4.39-.3-6.51.3-1.11.76-1.99,1.36-2.65.61-.66,1.11-.98,1.51-.98h.15c.1,0,.28.15.53.45.25.3.53.81.83,1.51.3.71.56,1.62.76,2.73.2,1.11.38,2.55.53,4.31.15,1.77.13,3.86-.08,6.28Z"/>
    </g>
  </g>
</svg>