<?xml version="1.0" encoding="UTF-8"?>
<svg id="Capa_2" data-name="Capa 2" xmlns="http://www.w3.org/2000/svg" viewBox="0 0 380.74 306.93">
  <defs>
    <style>
      .cls-1 {
        fill: none;
        stroke: #1d1d1b;
        stroke-miterlimit: 10;
        stroke-width: 3px;
      }
    </style>
  </defs>
  <g id="Capa_2-2" data-name="Capa 2">
    <path class="cls-1" d="M66.13,296.35c-1.25,2.55-2.4,4.95-3.75,7.14-6.96,11.1-.93-26.59,9.11-78.14.94-4.82,1.92-9.82,2.86-14.56,5.71-28.67,10.64-52.96,16.53-81.44,2.18-10.5,4.58-21.99,6.85-32.86,6.2-29.79,11.41-55.04,13.88-69.25.49-2.87.86-6.23.02-8.79-3.7-10.22-21.69-2.33-29.27.3C60.35,26.97,25.21,40.72,8.61,53.62c-6.89,4.91-12.34,15.77,1.41,13.85,16.07-3.39,31.78-15.86,46.26-21.98,32.32-13.45,66.14-26.71,100.15-36.24,14.55-3.83,38.69-10.48,51.17-6.56,12.53,4.96-8.12,20.33-14.04,24.54"/>
    <path class="cls-1" d="M19.5,210.05c6.71-6,13.43-11.99,20.6-17.21,55.68-41.53,122.81-3.69,133.25-67.99.25-7.81-4.6-8.5-9.23-2.37-5.95,7.96-10.26,25.31-2.5,33.42,10.22,9.86,35.02-14.73,29.8,11.47-3.67,18.87-13.19,43.93-12.12,61.27,1.62,13.22,13.57,3.94,21.2-4.94,4.69-5.48,8.61-11.73,12.11-18.13,5.44-9.94,10.44-20.4,15.78-30.51,6.85-12.44,12.19-23.23,21.41-27.07,5.15-1.95,10.65-.73,15.9.43"/>
    <path class="cls-1" d="M225.7,180.24c.81,7.26,1.99,14.02,11.64,7.2,6.04-4.12,13.21-14.92,17.35-16.95.78-.41,1.64-.61,2.42-.27,1.75.75,2.61,3.93,3.4,8.14,1.16,6.24,2.36,14.32,6.58,19.39,10.8,12.83,21.62-1.58,27.17-11.46,9.98-16.92,17.95-37.11,20.74-42.33.02,1.66-.87,4.1-1.29,6.16-3.35,14.79-13.29,50.19-13.92,58.71,2.83-6.07,5.27-13.39,8.41-20.44,3.64-8.31,15.01-35.28,26.3-24.03,5.05,5.76,6.72,15.08,10.39,21.81,11.21,22.67,29.05-13.82,34.53-24.04"/>
  </g>
</svg>