<svg xmlns="http://www.w3.org/2000/svg" version="1.1" xmlns:xlink="http://www.w3.org/1999/xlink" width="302.0045055659232" height="200" viewBox="-9.648889541625977 8.600000381469727 71.64888763427734 44.07130432128906"><path d="M11.04 13.32L9.28 11.84Q11.32 18.16 10.76 29.40L10.76 29.40Q14.08 28 16.60 26.40L16.60 26.40Q17.20 25.76 17.52 25.20Q17.84 24.64 18.04 23.64L18.04 23.64Q18.20 22.80 17.96 21.88Q17.72 20.96 17.34 20.14Q16.96 19.32 16.12 18.30Q15.28 17.28 14.64 16.60Q14 15.92 12.84 14.88L12.84 14.88L11.04 13.32ZM11.36 51.52L11.36 51.52Q13.08 48.36 12.92 45.12L12.92 45.12Q12.76 41.92 9.96 40.52L9.96 40.52Q9.84 41.76 9.80 42.72L9.80 42.72Q9.80 42.88 9.72 43.64Q9.64 44.40 9.60 45.08Q9.56 45.76 9.54 46.70Q9.52 47.64 9.62 48.40Q9.72 49.16 9.90 49.88Q10.08 50.60 10.46 51.04Q10.84 51.48 11.36 51.52ZM2.96 38.72L2.96 38.72Q6.48 38.20 9.04 38.72L9.04 38.72L9.20 36.84L5.92 37.40Q4.64 37.92 2.96 38.72ZM27.68 33.44L26.56 34.56Q25.52 34.36 24.34 34.34Q23.16 34.32 21.90 34.50Q20.64 34.68 19.60 34.88Q18.56 35.08 17.20 35.40Q15.84 35.72 15 35.84L15 35.84L10.24 36.68L10.04 39Q13.84 40.20 14.04 44L14.04 44Q14.24 47.68 11.84 51.52L11.84 51.52L10.72 52.64Q10.04 52.76 9.58 52.42Q9.12 52.08 8.88 51.38Q8.64 50.68 8.52 49.90Q8.40 49.12 8.42 48.10Q8.44 47.08 8.48 46.38Q8.52 45.68 8.60 44.84Q8.68 44 8.68 43.84L8.68 43.84Q8.76 42.36 8.92 40.12L8.92 40.12Q5.40 39-0.32 40.20L-0.32 40.20Q-5.20 42.44-8.40 43.24L-8.40 43.24L-7.28 42.12Q-6.48 41.92-5.70 41.68Q-4.92 41.44-4.04 41.12Q-3.16 40.80-2.56 40.56Q-1.96 40.32-0.96 39.88L-0.96 39.88L0.48 39.24L2.08 38.48Q3.24 37.96 3.56 37.80L3.56 37.80L1.04 38.24L-2.32 38.80Q-3.44 39-5.30 39.14Q-7.16 39.28-8.72 39.20L-8.72 39.20Q-8.80 39.20-9.10 39.22Q-9.40 39.24-9.54 39.22Q-9.68 39.20-9.64 39.04L-9.64 39.04Q-9.56 38.76-9.36 38.52Q-9.16 38.28-8.82 38Q-8.48 37.72-8.36 37.56L-8.36 37.56Q-8.48 37.76-8.52 37.92L-8.52 37.92Q-8.56 38.04-8.42 38.08Q-8.28 38.12-7.98 38.10Q-7.68 38.08-7.60 38.08L-7.60 38.08Q-6.04 38.16-4.18 38Q-2.32 37.84-1.20 37.68L-1.20 37.68Q-0.40 37.56 2.16 37.12L2.16 37.12L7.04 36.28L9.28 35.40Q9.52 32.60 9.60 30.56L9.60 30.56Q7.52 31.44 1.24 33.62Q-5.04 35.80-8.28 37.48L-8.28 37.48L-7.44 36.64Q-8.24 37.36-8.36 37.56L-8.36 37.56L-8.28 37.48L-7.44 36.64L-7.16 36.36Q-4 34.72 2.18 32.56Q8.36 30.40 9.64 29.88L9.64 29.88Q9.92 23.60 9.34 18.54Q8.76 13.48 6.80 9.72L6.80 9.72L7.92 8.60Q8.60 9.20 10.40 10.72L10.40 10.72L13.64 13.44Q15.04 14.72 16.52 16.30Q18 17.88 18.72 19.50Q19.44 21.12 19.16 22.52L19.16 22.52Q19.04 23.24 18.78 23.80Q18.52 24.36 18.36 24.56Q18.20 24.76 17.56 25.42Q16.92 26.08 16.72 26.32L16.72 26.32L15.60 27.44Q13.40 28.84 10.72 30.08L10.72 30.08Q10.60 32.12 10.36 35.04L10.36 35.04Q16.68 32.96 22.80 32.04Q28.92 31.12 36.56 30.84L36.56 30.84L35.44 31.96Q28.36 32.24 22.66 33.02Q16.96 33.80 11.24 35.56L11.24 35.56L16.12 34.72Q16.96 34.56 18.34 34.26Q19.72 33.96 20.76 33.76Q21.80 33.56 23.04 33.38Q24.28 33.20 25.46 33.20Q26.64 33.20 27.68 33.44L27.68 33.44ZM39.92 35L39.92 35Q39.56 37.44 39.20 38.88L39.20 38.88Q39.08 39.32 38.58 40.14Q38.08 40.96 37.96 41.40L37.96 41.40L36.84 42.52Q36.88 41.52 36.64 35.88L36.64 35.88L36.20 36.32Q35.96 34.84 35.48 33.28L35.48 33.28L36.60 32.16Q36.72 32.32 37 32.60Q37.28 32.88 37.46 33.14Q37.64 33.40 37.72 33.68L37.72 33.68Q37.84 34.16 37.96 40.36L37.96 40.36Q38.04 40.16 38.08 40L38.08 40Q38.32 39.04 38.52 37.92L38.52 37.92L38.88 35.44L39.20 33.32L40.32 32.20Q41.12 33.80 41.44 35.24L41.44 35.24Q41.56 35.72 41.68 35.80Q41.80 35.88 42.44 35.80L42.44 35.80L42.68 35.80L41.56 36.92Q41.48 36.92 41.32 36.96L41.32 36.96Q40.68 37 40.54 36.92Q40.40 36.84 40.32 36.36L40.32 36.36Q40.16 35.64 39.92 35ZM42.76 38.68L42.76 38.68Q45.20 38.24 49.60 37.12L49.60 37.12Q49.68 37.08 49.78 36.96Q49.88 36.84 49.96 36.76Q50.04 36.68 50.10 36.60Q50.16 36.52 50.16 36.48Q50.16 36.44 50.08 36.40L50.08 36.40Q47.20 35.76 42.76 38.68ZM51.56 37.48L49.44 38.04Q48.96 38.88 48.64 39.72L48.64 39.72L47.52 40.84Q47.96 39.64 48.92 38.16L48.92 38.16Q43.72 39.48 41.04 39.92L41.04 39.92L42.16 38.80Q47.80 34.52 51.20 35.28L51.20 35.28Q51.32 35.36 51.26 35.46Q51.20 35.56 50.96 35.80L50.96 35.80L50.64 36.12L50.04 37.04L52.68 36.36L51.56 37.48ZM57.60 37.40L57.60 37.40Q59.40 35.60 59.56 35.72L59.56 35.72Q59.64 35.92 59.60 36.46Q59.56 37 59.48 37.68L59.48 37.68L59.40 38.36Q59.44 38.92 59.54 39.20Q59.64 39.48 59.86 39.60Q60.08 39.72 60.30 39.74Q60.52 39.76 61.04 39.76Q61.56 39.76 62 39.84L62 39.84L60.88 40.96Q60.44 40.92 59.92 40.90Q59.40 40.88 59.18 40.88Q58.96 40.88 58.72 40.76Q58.48 40.64 58.40 40.34Q58.32 40.04 58.28 39.48L58.28 39.48L58.36 38.80Q58.44 38.12 58.48 37.58Q58.52 37.04 58.44 36.84L58.44 36.84Q58.32 36.76 57.60 37.40ZM52.96 35.92L53.76 34.04L54.88 32.92Q54.80 33.12 54.62 33.50Q54.44 33.88 54.32 34.20Q54.20 34.52 54.08 34.80L54.08 34.80Q53.92 35.28 53.52 36.68L53.52 36.68Q52.88 38.96 52.96 39.56L52.96 39.56Q53.24 41.68 56.60 38.40L56.60 38.40Q53.56 41.52 52.56 41.56L52.56 41.56Q51.96 41.60 51.84 40.68L51.84 40.68Q51.76 40.08 52.40 37.80L52.40 37.80Q52.76 36.40 52.96 35.92L52.96 35.92Z" fill="black"></path></svg>